<svg xmlns="http://www.w3.org/2000/svg" viewBox="0 0 120 120" fill="none">
  <defs>
    <linearGradient id="bg" x1="0" y1="0" x2="1" y2="1">
      <stop offset="0%" stop-color="#667eea"/>
      <stop offset="100%" stop-color="#764ba2"/>
    </linearGradient>
    <linearGradient id="shine" x1="0" y1="0" x2="0.5" y2="1">
      <stop offset="0%" stop-color="rgba(255,255,255,0.25)"/>
      <stop offset="100%" stop-color="rgba(255,255,255,0)"/>
    </linearGradient>
  </defs>
  <!-- Rounded square background -->
  <rect width="120" height="120" rx="28" fill="url(#bg)"/>
  <rect width="120" height="120" rx="28" fill="url(#shine)"/>
  <!-- S letterform - bold, modern, geometric -->
  <path d="M72.5 38.5C70 34 64 30 57 30c-10 0-18 6-18 15 0 8 5 12 15 15.5 8 2.8 11 5 11 9.5 0 5-4.5 9-11 9-5.5 0-9.5-2.5-11.5-7l-8 4c3.5 7 10.5 11 19.5 11 11.5 0 19.5-7 19.5-17 0-9.5-6-13.5-16.5-17-7.5-2.5-9.5-4.5-9.5-8 0-4 3.5-7 8.5-7 4.5 0 8 2 10 6l6.5-5z" fill="#fff"/>
</svg>
